<svg width="48" height="41" viewBox="0 0 48 41" fill="none" xmlns="http://www.w3.org/2000/svg">
<path d="M1.92193 11.1378C1.46265 10.9995 0.975257 11.23 0.787797 11.6541C0.722186 11.8108 -0.843103 15.4802 0.628456 18.5871C1.91256 21.2884 5.00564 22.5331 5.89608 22.8465C5.98981 23.3352 6.09291 23.8238 6.2335 24.3124C3.65593 23.3813 0.8909 23.999 0.750305 24.0358C0.281656 24.1465 -0.0276528 24.5798 0.0285851 25.0408C0.0473311 25.2067 0.562846 29.1618 3.41223 31.1256C5.91482 32.8496 10.0671 32.527 10.7419 32.0014C11.2106 32.4624 11.698 32.8957 12.2228 33.3014C10.1514 34.168 8.73609 35.6984 8.66111 35.7814C8.34243 36.1318 8.34243 36.6573 8.66111 37.0076C8.78296 37.1367 11.5105 40.0869 14.9972 40.0869C18.484 40.0869 21.2022 37.1367 21.324 37.0168C21.3428 36.9984 21.3521 36.9892 21.3615 36.9707L23.8641 37.3211C23.911 37.3303 23.9485 37.3303 23.9953 37.3303C24.0422 37.3303 24.0797 37.3303 24.1265 37.3211L26.6385 36.9707C26.6479 36.9892 26.6666 37.0076 26.676 37.0168C26.7885 37.1459 29.516 40.0869 33.0028 40.0869C36.4895 40.0869 39.2077 37.1367 39.3295 37.0168C39.6482 36.6665 39.6482 36.141 39.3295 35.7906C39.2452 35.6984 37.8392 34.168 35.7678 33.3014C36.2833 32.8957 36.7801 32.4624 37.2487 32.0014C37.9236 32.5177 42.0477 32.8681 44.5878 31.1256C47.4465 29.1618 47.9527 25.2067 47.9714 25.0408C48.0277 24.5706 47.7183 24.1373 47.2497 24.0358C47.1091 24.0082 44.3441 23.3905 41.7665 24.3216C41.8977 23.8422 42.0102 23.3536 42.1039 22.8557C42.985 22.5515 46.0874 21.2977 47.3715 18.5964C48.8431 15.4894 47.2778 11.8201 47.2122 11.6633C47.0247 11.23 46.5373 11.0088 46.0781 11.147C45.9562 11.1839 43.8098 11.8385 42.1039 13.4335C41.9258 12.2718 41.6634 11.1286 41.326 10.0038C41.6634 8.68545 41.9915 6.41747 41.0448 4.41685C39.5732 1.30989 35.6928 0.157463 35.5335 0.111365C35.0836 -0.0177069 34.5962 0.20356 34.4087 0.627654C34.3431 0.784385 32.7778 4.42607 34.2494 7.53302C35.7209 10.64 39.592 11.8201 39.7513 11.8662C39.7982 11.8846 39.8544 11.8938 39.9013 11.8938C40.2012 13.1477 40.3887 14.4292 40.4637 15.7199C39.5732 17.8404 40.0138 20.1544 40.4074 21.482C40.2293 23.0678 39.8075 24.6167 39.1421 26.0733C38.4578 26.8293 37.8955 27.7789 37.483 28.8945C36.3583 30.4157 34.9711 31.6972 33.3683 32.7206C33.2465 32.7113 33.1246 32.7113 33.0028 32.7113C29.8909 32.7113 27.7539 34.9424 27.4258 34.9978L24.0047 35.468L20.5835 34.9978C20.2649 34.9424 17.9216 32.5362 14.6411 32.7206C13.0477 31.6972 11.6605 30.4157 10.5357 28.9037C10.1139 27.7789 9.55154 26.8293 8.86731 26.0733C8.2112 24.6167 7.78005 23.077 7.61133 21.4913C8.005 20.1637 8.44553 17.8404 7.55509 15.7199C7.63008 14.4292 7.81754 13.1477 8.11747 11.8938C8.6986 11.8201 12.3916 10.4372 13.7694 7.5238C15.2409 4.41685 13.6757 0.775166 13.61 0.618435C13.4226 0.19434 12.9446 -0.036146 12.4853 0.102146C12.3166 0.148243 8.44553 1.29145 6.97397 4.40763C6.01792 6.41747 6.35535 8.67624 6.69278 9.99462C6.34598 11.1194 6.08354 12.2626 5.91482 13.415C4.19019 11.8385 2.04378 11.1747 1.92193 11.1378ZM45.9094 25.6953C45.6282 26.7832 44.9533 28.6087 43.4911 29.6136C42.0289 30.6185 40.0512 30.6185 38.9171 30.5079C39.3014 29.0236 40.07 27.4655 41.3353 26.5896C42.8069 25.5847 44.7752 25.5847 45.9094 25.6953ZM45.7688 13.2399C46.0781 14.3185 46.4155 16.227 45.6657 17.8219C44.9065 19.4169 43.2006 20.3849 42.1602 20.8459C41.879 19.8502 41.5041 17.8957 42.2539 16.2915C42.2539 16.2823 42.2633 16.2731 42.2633 16.2638C43.0225 14.6689 44.7284 13.7008 45.7688 13.2399ZM35.9271 6.74937C35.1773 5.1544 35.5147 3.26442 35.824 2.19496C36.8551 2.64671 38.5703 3.59632 39.3295 5.19128C40.0981 6.80469 39.7232 8.74999 39.4326 9.77335C38.4016 9.31238 36.6863 8.34433 35.9271 6.74937ZM32.9934 38.243C31.2031 38.243 29.591 37.1275 28.7287 36.3991C29.6097 35.6616 31.2125 34.5552 32.9934 34.5552C34.7836 34.5552 36.3958 35.6708 37.2581 36.3991C36.3958 37.1275 34.7836 38.243 32.9934 38.243ZM14.9972 38.243C13.207 38.243 11.5949 37.1275 10.7325 36.3991C11.5949 35.6708 13.2164 34.5552 14.9972 34.5552C16.7781 34.5552 18.3996 35.6708 19.262 36.3991C18.3996 37.1275 16.7781 38.243 14.9972 38.243ZM2.32497 17.8219C1.56575 16.227 1.91256 14.3185 2.22186 13.2399C3.25289 13.7008 4.95878 14.6597 5.71799 16.2546C5.71799 16.2638 5.72736 16.2731 5.72736 16.2823C6.4772 17.8957 6.10228 19.8502 5.82109 20.8459C4.79944 20.3849 3.08418 19.4169 2.32497 17.8219ZM4.4995 29.6136C3.03731 28.6087 2.36246 26.7832 2.08127 25.6953C3.2154 25.5847 5.18373 25.5847 6.64591 26.5896C7.92064 27.4655 8.67985 29.0328 9.06415 30.5079C7.93939 30.6185 5.96169 30.6185 4.4995 29.6136ZM8.66111 5.19128C9.41095 3.59632 11.1262 2.64671 12.1666 2.19496C12.4759 3.26442 12.8133 5.1544 12.0635 6.74937C11.3043 8.34433 9.59841 9.31238 8.558 9.77335C8.26744 8.75921 7.89252 6.80469 8.66111 5.19128Z" fill="#F2F2F2"/>
<path d="M24.9322 17.0375C24.9322 16.5305 24.5104 16.1157 23.9949 16.1157C23.4794 16.1157 23.0576 16.5305 23.0576 17.0375V19.8029C23.0576 20.3099 23.4794 20.7247 23.9949 20.7247C24.5104 20.7247 24.9322 20.3099 24.9322 19.8029V17.0375Z" fill="#F2F2F2"/>
<path d="M23.9949 25.3344C24.5126 25.3344 24.9322 24.9219 24.9322 24.4131C24.9322 23.9042 24.5126 23.4917 23.9949 23.4917C23.4773 23.4917 23.0576 23.9042 23.0576 24.4131C23.0576 24.9219 23.4773 25.3344 23.9949 25.3344Z" fill="#F2F2F2"/>
<path d="M36.2172 14.5121C36.1047 14.1802 35.8141 13.9405 35.4673 13.8851L28.147 12.7973L24.8383 6.28832C24.679 5.97486 24.351 5.78125 24.0042 5.78125C23.648 5.78125 23.3199 5.97486 23.17 6.28832L19.8613 12.7973L12.541 13.8851C12.1942 13.9405 11.8943 14.1802 11.7912 14.5121C11.6787 14.844 11.7724 15.2127 12.0255 15.4525L17.3025 20.56L16.0934 27.742C16.0371 28.0831 16.1777 28.4334 16.4683 28.6363C16.7588 28.8391 17.1338 28.8668 17.4524 28.71L20.6767 27.0597C21.136 26.8293 21.3141 26.2669 21.0798 25.8151C20.8455 25.3634 20.2737 25.1882 19.8144 25.4187L18.2585 26.2116L19.2427 20.3756C19.2895 20.0806 19.1958 19.7764 18.9802 19.5643L14.6968 15.4156L20.6486 14.5305C20.9486 14.4844 21.211 14.3 21.3516 14.0327L24.0416 8.74069L26.7317 14.0327C26.8723 14.3 27.1254 14.4844 27.4347 14.5305L33.3865 15.4156L29.1031 19.5643C28.8875 19.7764 28.7844 20.0806 28.8406 20.3756L29.8248 26.2116L28.2689 25.4187C27.8096 25.1882 27.2472 25.3634 27.0035 25.8151C26.7692 26.2669 26.9473 26.82 27.4065 27.0597L30.6309 28.71C30.9495 28.876 31.3338 28.8391 31.615 28.6363C31.9056 28.4334 32.0462 28.0831 31.9899 27.742L30.7808 20.56L36.0578 15.4525C36.2359 15.2127 36.3203 14.844 36.2172 14.5121Z" fill="#F2F2F2"/>
</svg>
