<svg width="42" height="41" viewBox="0 0 42 41" fill="none" xmlns="http://www.w3.org/2000/svg">
<path d="M21 15.0707C22.3535 15.0707 23.4609 13.9452 23.4609 12.5695C23.4609 11.1939 22.3535 10.0684 21 10.0684C19.6465 10.0684 18.5391 11.1939 18.5391 12.5695C18.5391 13.9452 19.6465 15.0707 21 15.0707ZM21 11.7358C21.4512 11.7358 21.8203 12.111 21.8203 12.5695C21.8203 13.0281 21.4512 13.4032 21 13.4032C20.5488 13.4032 20.1797 13.0281 20.1797 12.5695C20.1797 12.111 20.5488 11.7358 21 11.7358Z" fill="white"/>
<path d="M21.8203 39.2523C21.8203 39.7106 21.4512 40.0856 21 40.0856C20.5488 40.0856 20.1797 39.7106 20.1797 39.2523C20.1797 38.7939 20.5488 38.4189 21 38.4189C21.4512 38.4189 21.8203 38.7939 21.8203 39.2523Z" fill="white"/>
<path d="M41.1797 32.5822H39.5391V14.2375C39.5391 12.8616 38.4316 11.7359 37.0781 11.7359H26.5371C26.1023 7.51665 24.3633 3.60588 21.6234 0.35386C21.4676 0.170412 21.2379 0.0620117 21 0.0620117C20.7621 0.0620117 20.5324 0.170412 20.3766 0.35386C17.6367 3.60588 15.8977 7.51665 15.4629 11.7359H4.92188C3.56836 11.7359 2.46094 12.8616 2.46094 14.2375V32.5822H0.820312C0.369141 32.5822 0 32.9575 0 33.4161V35.5007C0 38.0273 2.02617 40.0869 4.51172 40.0869H17.3086C17.7598 40.0869 18.1289 39.7117 18.1289 39.253C18.1289 38.7944 17.7598 38.4192 17.3086 38.4192H4.51172C2.92852 38.4192 1.64062 37.1101 1.64062 35.5007V34.2499H12.9035C13.2727 35.6842 14.5523 36.7515 16.0781 36.7515H25.9219C27.4477 36.7515 28.7355 35.6842 29.0965 34.2499H40.3594V35.5007C40.3594 37.1101 39.0715 38.4192 37.4883 38.4192H24.6914C24.2402 38.4192 23.8711 38.7944 23.8711 39.253C23.8711 39.7117 24.2402 40.0869 24.6914 40.0869H37.4883C39.9738 40.0869 42 38.0273 42 35.5007V33.4161C42 32.9575 41.6309 32.5822 41.1797 32.5822ZM37.8984 14.2375V32.5822H31.4262C30.7125 30.1307 28.4977 28.413 25.9219 28.413C25.0195 28.413 24.2812 27.6708 24.2812 26.7453V24.3771L25.5363 20.5247L28.793 22.4593C29.0473 22.6094 29.359 22.6094 29.6133 22.4593C29.8676 22.3092 30.0234 22.034 30.0234 21.7338C30.0234 21.4336 30.0234 21.1501 30.0234 20.8833C30.0316 17.0142 29.966 15.8135 27.7594 13.3953H37.0781C37.5293 13.4036 37.8984 13.7789 37.8984 14.2375ZM13.6172 20.2913C13.6172 17.3478 13.7156 16.4389 15.3727 14.6127C15.4301 16.0386 15.6352 17.4728 15.9879 18.882L13.6172 20.2913ZM21 8.40053C22.0418 8.40053 23.0508 8.11702 23.9285 7.58335C24.5027 9.2177 24.8555 10.9021 24.9703 12.6198C25.0934 14.546 24.9211 16.4889 24.4453 18.3984H17.5547C17.0789 16.4889 16.9066 14.546 17.0297 12.6198C17.1445 10.9021 17.4891 9.20937 18.0715 7.58335C18.9492 8.11702 19.9582 8.40053 21 8.40053ZM26.6273 14.6127C28.2844 16.4389 28.3828 17.3478 28.3828 20.2913L26.0121 18.882C26.373 17.4728 26.5781 16.0386 26.6273 14.6127ZM19.1297 23.4099L18.0469 20.0745H23.9531L22.8621 23.4099H19.1297ZM21 2.21335C21.9105 3.40576 22.6816 4.68155 23.2969 6.01571C22.6242 6.48267 21.8203 6.73283 21 6.73283C20.1797 6.73283 19.3758 6.48267 18.7031 6.01571C19.3184 4.68155 20.0895 3.40576 21 2.21335ZM4.10156 14.2375C4.10156 13.7789 4.4707 13.4036 4.92188 13.4036H14.2406C12.034 15.8218 11.9602 17.0226 11.9766 20.8916C11.9766 21.1585 11.9766 21.442 11.9766 21.7422C11.9766 22.0423 12.1324 22.3175 12.3867 22.4676C12.641 22.6177 12.9527 22.6177 13.207 22.4676L16.4637 20.5331L17.7188 24.3855V26.7453C17.7188 27.6625 16.9805 28.413 16.0781 28.413C13.5023 28.413 11.2875 30.1307 10.5738 32.5822H4.10156V14.2375ZM28.3828 32.5822C27.9316 32.5822 27.5625 32.9575 27.5625 33.4161C27.5625 34.3333 26.8242 35.0838 25.9219 35.0838H16.0781C15.1758 35.0838 14.4375 34.3333 14.4375 33.4161C14.4375 32.9575 14.0684 32.5822 13.6172 32.5822H12.3129C12.9527 31.0896 14.4047 30.0807 16.0781 30.0807C17.891 30.0807 19.3594 28.5881 19.3594 26.7453V25.0776H22.6406V26.7453C22.6406 28.6131 24.1336 30.0807 25.9219 30.0807C27.5953 30.0807 29.0473 31.0896 29.6871 32.5822H28.3828Z" fill="white"/>
</svg>
