<svg width="40" height="47" viewBox="0 0 40 47" fill="none" xmlns="http://www.w3.org/2000/svg">
<path d="M39.1036 18.6387H8.82094L37.9054 10.1089C38.1273 10.046 38.3226 9.88417 38.4379 9.67744C38.5533 9.47071 38.5799 9.21904 38.5089 8.99434L36.9913 3.67332C36.3789 1.54311 34.4263 0.0600586 32.243 0.0600586C31.7814 0.0600586 31.3199 0.122976 30.8762 0.257799L3.56674 8.26629C2.29757 8.63481 1.25916 9.48869 0.620132 10.6661C-0.0188922 11.8346 -0.169773 13.1828 0.194116 14.4682L1.68517 19.6633V41.0822C1.68517 43.8416 3.90401 46.0887 6.61986 46.0887H17.288C17.7762 46.0887 18.1755 45.6842 18.1755 45.1899C18.1755 44.6955 17.7762 44.291 17.288 44.291H6.61986C4.88029 44.2821 3.46024 42.8439 3.46024 41.0733V28.8493H8.00441H14.9538H21.9032H28.8526H38.1983V41.0822C38.1983 42.8529 36.7783 44.291 35.0298 44.291H24.3883C23.9001 44.291 23.5007 44.6955 23.5007 45.1899C23.5007 45.6842 23.9001 46.0887 24.3883 46.0887H35.0564C37.7812 46.0887 40 43.8416 40 41.0822V19.5375C39.9911 19.0432 39.5917 18.6387 39.1036 18.6387ZM23.4564 27.0517L27.2284 20.4363H32.1276L28.3556 27.0517H23.4564ZM16.4981 27.0517L20.2701 20.4363H25.1782L21.4062 27.0517H16.4981ZM9.53984 27.0517L13.3119 20.4363H18.2199L14.4479 27.0517H9.53984ZM12.8415 15.4119L6.53111 9.27297L11.2617 7.8798C11.2972 7.92474 11.3327 7.97867 11.377 8.01462L17.6874 14.1536L12.9568 15.5467C12.9302 15.5018 12.8858 15.4569 12.8415 15.4119ZM24.7344 4.10475L31.0448 10.2437L26.3142 11.6279C26.2787 11.5829 26.2432 11.529 26.1989 11.4931L19.8885 5.35411L24.619 3.96993C24.6545 4.01487 24.69 4.05981 24.7344 4.10475ZM18.0602 6.06418L24.3705 12.2031L19.64 13.5873C19.6045 13.5424 19.569 13.4884 19.5246 13.4525L13.2142 7.31354L17.9448 5.92936C17.9714 5.9743 18.0158 6.01924 18.0602 6.06418ZM31.3643 1.98354C31.6483 1.90264 31.9412 1.8577 32.2341 1.8577C33.6364 1.8577 34.8878 2.81045 35.2783 4.16767L36.5564 8.62582L32.9974 9.66846C32.9619 9.62351 32.9264 9.56958 32.882 9.53363L26.5716 3.39468L31.3643 1.98354ZM2.17332 11.529C2.58158 10.774 3.25611 10.2347 4.06376 9.99203L4.58741 9.83923C4.62291 9.88417 4.65841 9.9381 4.70279 9.97405L11.0132 16.113L3.17623 18.414L1.89818 13.9558C1.66742 13.1469 1.76505 12.284 2.17332 11.529ZM3.46024 20.4363H11.2705L7.49852 27.0517H3.46024V20.4363ZM30.4058 27.0517L34.1778 20.4363H38.2161V27.0517H30.4058Z" fill="white"/>
<path d="M26.971 36.4716C26.971 36.148 26.8024 35.8514 26.5273 35.6896L18.7258 31.1326C18.4507 30.9708 18.1134 30.9708 17.8383 31.1326C17.5632 31.2944 17.3945 31.591 17.3945 31.9145V41.0286C17.3945 41.3522 17.5632 41.6488 17.8383 41.8106C17.9714 41.8915 18.1312 41.9274 18.2821 41.9274C18.4329 41.9274 18.5927 41.8915 18.7258 41.8106L26.5273 37.2535C26.8024 37.0918 26.971 36.7951 26.971 36.4716ZM19.1785 39.4736V33.4695L24.3173 36.4716L19.1785 39.4736Z" fill="white"/>
<path d="M20.8387 44.2822C20.3506 44.2822 19.9512 44.6864 19.9512 45.1805C19.9512 45.6745 20.3506 46.0788 20.8387 46.0788C21.3268 46.0788 21.7262 45.6745 21.7262 45.1805C21.7262 44.6864 21.3268 44.2822 20.8387 44.2822Z" fill="white"/>
</svg>
