<svg width="24" height="21" viewBox="0 0 24 21" fill="none" xmlns="http://www.w3.org/2000/svg">
<path fill-rule="evenodd" clip-rule="evenodd" d="M14.7707 0.86544C12.283 1.51165 11.4398 1.74855 11.3604 1.82349C11.2425 1.93475 11.2187 2.17552 11.3135 2.29795C11.3457 2.33953 11.7676 2.66764 12.251 3.02702C12.7345 3.3864 13.13 3.68555 13.13 3.6918C13.13 3.698 13.0456 4.1297 12.9425 4.65104C12.8393 5.17238 12.755 5.70169 12.755 5.82727C12.755 6.8521 14.2639 8.20585 15.966 8.70814C16.9393 8.99535 18.1773 9.04514 19.0864 8.83363C20.1797 8.57926 21.0338 8.02222 21.218 7.44341C21.2389 7.37778 21.3426 6.88518 21.4486 6.34875L21.6413 5.37343L22.7179 5.09314C23.6081 4.86135 23.8128 4.79214 23.9 4.69347C24.0407 4.53424 24.033 4.37252 23.8765 4.20078C23.8057 4.12292 22.6718 3.2592 21.3569 2.28139C18.1441 -0.107881 18.2896 -0.00353729 18.1761 0.00204746C18.1207 0.00476823 16.5883 0.393314 14.7707 0.86544ZM20.4252 2.538C22.2388 3.8897 22.7271 4.27519 22.6607 4.30278C22.614 4.32221 21.3571 4.65109 19.8677 5.03367L17.1597 5.72923L16.0472 4.9013C15.4353 4.44588 14.3903 3.66789 13.7248 3.17237C12.9375 2.58612 12.5364 2.25957 12.5764 2.23752C12.6101 2.21886 13.7347 1.92186 15.0754 1.57752C16.4161 1.23313 17.6185 0.921144 17.7474 0.884247C17.8763 0.847301 18.0094 0.815177 18.0433 0.812791C18.0771 0.810452 19.1489 1.58683 20.4252 2.538ZM15.3411 5.32298C16.1681 5.94198 16.8915 6.47009 16.9486 6.49658C17.0305 6.53458 17.4466 6.44274 18.9181 6.06188C19.9442 5.79629 20.7925 5.58784 20.8031 5.59873C20.8138 5.60961 20.7551 5.97887 20.6726 6.41935C20.5337 7.16074 20.511 7.23324 20.3662 7.39654C19.8383 7.99148 18.1729 8.35129 16.9197 8.14112C15.6033 7.92036 14.4503 7.29071 13.7792 6.42618C13.4787 6.03916 13.4706 5.95262 13.646 5.01433C13.73 4.56512 13.8074 4.19758 13.8181 4.19758C13.8287 4.19758 14.5141 4.70402 15.3411 5.32298ZM2.96885 5.78875C2.71609 5.88207 2.48447 6.10517 2.36545 6.3699L2.25309 6.61983L2.26551 12.6641L2.27793 18.7084H1.25624H0.234511L0.119475 18.8256C-0.195867 19.1467 0.150648 20.2127 0.719126 20.6702C1.16127 21.0261 0.28106 20.9996 11.6299 20.9996C20.5321 20.9996 21.862 20.9905 22.0673 20.9284C22.6995 20.7373 23.177 20.0647 23.2421 19.2737C23.2665 18.9777 23.2599 18.9473 23.1468 18.8321L23.0253 18.7084H22.0036H20.9819L20.9945 14.0532L21.0072 9.39798L20.8912 9.27989C20.738 9.12394 20.523 9.12356 20.3704 9.27898L20.2553 9.39612V13.9351V18.4741L20.1402 18.5912L20.0252 18.7084H11.6299H3.23464L3.11961 18.5912L3.00452 18.4741V12.5852V6.69635L3.113 6.59253L3.22152 6.48875H7.44692C10.4438 6.48875 11.7056 6.47334 11.7866 6.43577C12.0155 6.32957 12.0686 6.02422 11.8898 5.84221L11.7748 5.72503L7.44824 5.72866C4.24358 5.73133 3.08206 5.74694 2.96885 5.78875ZM9.09854 9.11406C9.00648 9.20781 9.00479 9.27316 9.00479 12.786V16.3625L9.12831 16.4614C9.19624 16.5159 9.30307 16.5604 9.3657 16.5604C9.47637 16.5604 15.8255 13.2061 15.9957 13.0577C16.1192 12.95 16.1567 12.7464 16.0787 12.606C15.9836 12.4346 9.57782 9.0186 9.35168 9.0186C9.25479 9.0186 9.15555 9.05602 9.09854 9.11406ZM12.8604 11.67C13.9884 12.2716 14.9107 12.7749 14.91 12.7886C14.9092 12.8022 14.0186 13.2859 12.9308 13.8635C11.843 14.4411 10.6834 15.0572 10.3539 15.2328L9.75482 15.5519V12.7825V10.013L10.2822 10.2945C10.5723 10.4494 11.7325 11.0683 12.8604 11.67ZM22.4585 19.4979C22.4585 19.5121 22.4182 19.6033 22.3691 19.7007C22.2599 19.9167 22.0583 20.1169 21.8812 20.185C21.6956 20.2565 1.56423 20.2565 1.37859 20.185C1.20154 20.1169 0.999873 19.9167 0.890743 19.7007C0.841569 19.6033 0.801302 19.5121 0.801302 19.4979C0.801302 19.4837 5.67417 19.4721 11.6299 19.4721C17.5856 19.4721 22.4585 19.4837 22.4585 19.4979Z" fill="#9099A3"/>
</svg>
